#!OML:ASF F:\VICON\USERDATA\INSTALL\rory3\rory3.ASF
:FULLY-SPECIFIED
:DEGREES
658
root -8.06396 14.0351 -11.9168 -152.653 -54.9811 -184.068
lowerback -10.1568 -3.1286 -2.41657
upperback -10.6881 -5.00531 -0.107545
thorax -5.37809 -2.77812 1.00362
lowerneck -13.8402 3.15911 -0.401565
upperneck 35.7474 2.18822 1.463
head 14.6162 0.315128 0.829002
rclavicle -4.26517e-014 7.7526e-015
rhumerus -34.9812 -28.2994 -48.7913
rradius 21.4172
rwrist -37.4737
rhand 27.7258 7.20223
rfingers 7.12502
rthumb 51.6512 -13.1084
lclavicle -4.26517e-014 7.7526e-015
lhumerus -13.7343 -65.5788 78.057
lradius 48.0832
lwrist 26.1452
lhand 36.0945 19.0703
lfingers 7.12502
lthumb 59.0866 33.7751
rfemur 266.125 -25.2 -302.849
rtibia 68.471
rfoot 145.431 -215.841
rtoes 42.5436
lfemur -4.34565 4.47496 -18.2484
ltibia 44.8055
lfoot 139.408 -148.835
ltoes -22.4659
659
root -8.13571 13.9973 -11.9605 -152.664 -55.5184 -183.892
lowerback -9.98584 -3.50432 -1.81214
upperback -10.7769 -5.54813 0.0960638
thorax -5.58188 -3.08233 0.870763
lowerneck -14.16 3.37951 -0.503177
upperneck 35.7494 2.58507 1.42891
head 14.6828 0.470526 0.902725
rclavicle -8.87077e-015 -3.12092e-014
rhumerus -34.4126 -28.5423 -47.2903
rradius 20.2517
rwrist -34.5073
rhand 28.232 7.12197
rfingers 7.12502
rthumb 52.1106 -12.9178
lclavicle -8.87077e-015 -3.12092e-014
lhumerus -10.2422 -66.3776 75.3494
lradius 47.7311
lwrist 23.7914
lhand 36.4922 18.7769
lfingers 7.12502
lthumb 59.4293 33.1427
rfemur 265.986 -24.9902 -303.42
rtibia 69.2807
rfoot 144.11 -216.336
rtoes 42.8377
lfemur -4.56975 4.07823 -17.8774
ltibia 45.2495
lfoot 138.674 -149.899
ltoes -17.8345
660
root -8.18265 14.0241 -11.9963 -153.42 -55.5531 -182.376
lowerback -9.85911 -3.48209 -0.768445
upperback -10.8542 -5.57377 0.413766
thorax -5.79107 -3.15277 0.6426
lowerneck -14.617 3.43014 -0.393233
upperneck 35.4813 2.76228 1.27366
head 14.6661 0.56806 0.858737
rclavicle 1.04002e-013 2.8625e-014
rhumerus -33.9207 -29.9843 -45.3064
rradius 18.8058
rwrist -30.5734
rhand 28.5008 7.71039
rfingers 7.12502
rthumb 52.3542 -12.1825
lclavicle 1.04002e-013 2.8625e-014
lhumerus -4.83312 -67.5957 70.8936
lradius 47.2897
lwrist 21.6917
lhand 36.4755 18.7684
lfingers 7.12502
lthumb 59.415 33.1485
rfemur 266.645 -23.8154 -303.475
rtibia 69.343
rfoot 142.863 -216.835
rtoes 43.0312
lfemur -5.33702 3.79418 -17.2103
ltibia 45.5433
lfoot 138.217 -149.531
ltoes -15.0652
661
root -8.26372 14.054 -12.0387 -153.502 -56.2468 -181.939
lowerback -9.88876 -3.36826 0.261187
upperback -10.7534 -5.45756 0.37735
thorax -5.759 -3.15767 0.0372266
lowerneck -15.3969 3.17431 -0.342342
upperneck 35.1522 2.56199 1.075
head 14.7006 0.507686 0.753715
rclavicle 1.45734e-013 2.76311e-014
rhumerus -34.4115 -33.0415 -41.8086
rradius 17.3747
rwrist -25.588
rhand 28.9086 8.3722
rfingers 7.12502
rthumb 52.7231 -11.2939
lclavicle 1.45734e-013 2.76311e-014
lhumerus 2.55885 -69.4464 64.861
lradius 46.9601
lwrist 19.5067
lhand 36.8318 19.4428
lfingers 7.12502
lthumb 59.721 33.5127
rfemur 266.514 -24.2986 -303.008
rtibia 69.4277
rfoot 142.359 -216.671
rtoes 42.9565
lfemur -5.71028 3.28748 -16.796
ltibia 45.445
lfoot 138.584 -148.244
ltoes -14.3891
662
root -8.36959 14.0929 -12.0986 -152.812 -57.2754 -182.631
lowerback -9.97204 -3.82402 0.75046
upperback -11.0222 -6.14099 0.305968
thorax -6.07477 -3.55662 -0.32136
lowerneck -15.2472 3.27505 -0.455414
upperneck 34.8975 2.72608 1.19768
head 14.5401 0.588354 0.847585
rclavicle -2.47363e-014 6.36111e-015
rhumerus -35.0799 -35.1075 -38.6737
rradius 16.1165
rwrist -20.0242
rhand 29.263 8.99009
rfingers 7.12502
rthumb 53.0432 -10.4749
lclavicle -2.47363e-014 6.36111e-015
lhumerus 6.11575 -70.2418 61.4835
lradius 46.7983
lwrist 16.4109
lhand 37.0909 19.5369
lfingers 7.12502
lthumb 59.943 33.3769
rfemur 265.817 -26.0036 -302.235
rtibia 69.4333
rfoot 142.722 -216.21
rtoes 42.4063
lfemur -5.78678 2.46083 -16.856
ltibia 44.981
lfoot 138.625 -146.977
ltoes -12.0799
663
root -8.43862 14.1397 -12.1669 -151.017 -57.1497 -184.07
lowerback -10.233 -4.27487 -0.107309
upperback -11.459 -6.77543 0.424125
thorax -6.31598 -3.84535 0.248498
lowerneck -14.7449 3.52369 -0.270981
upperneck 34.2472 3.20922 0.846262
head 14.1362 0.795435 0.739787
rclavicle 6.44187e-014 -1.21259e-014
rhumerus -35.0947 -36.9744 -35.8638
rradius 14.9617
rwrist -14.212
rhand 29.4684 9.4542
rfingers 7.12502
rthumb 53.2284 -9.89245
lclavicle 6.44187e-014 -1.21259e-014
lhumerus 9.26129 -70.1707 58.5936
lradius 46.3993
lwrist 12.8932
lhand 36.6495 18.9918
lfingers 7.12502
lthumb 59.5646 33.2212
rfemur 265.357 -26.2153 -302.528
rtibia 69.2107
rfoot 142.994 -216.218
rtoes 41.9069
lfemur -6.35818 2.01797 -17.8475
ltibia 44.3096
lfoot 137.019 -146.752
ltoes -4.92483
664
root -8.52208 14.2258 -12.1993 -152.186 -58.0506 -182.552
lowerback -10.1554 -4.50325 1.3587
upperback -11.382 -7.11734 0.958613
thorax -6.37744 -4.08936 -0.00380962
lowerneck -14.3977 3.61537 0.0875057
upperneck 32.9503 3.64848 0.0604832
head 13.5131 0.996763 0.42972
rclavicle 3.9875e-014 2.18663e-015
rhumerus -34.9437 -39.9817 -32.643
rradius 13.8963
rwrist -7.95517
rhand 29.5507 9.83631
rfingers 7.12502
rthumb 53.3025 -9.46259
lclavicle 3.9875e-014 2.18663e-015
lhumerus 15.4184 -69.9114 53.2437
lradius 45.9104
lwrist 9.14307
lhand 36.2861 18.4227
lfingers 7.12502
lthumb 59.2518 32.9652
rfemur 265.582 -27.3617 -300.638
rtibia 68.6056
rfoot 143.607 -215.728
rtoes 41.2104
lfemur -6.41122 1.47163 -16.8459
ltibia 43.6164
lfoot 134.318 -147.86
ltoes 5.31029
665
root -8.60108 14.3025 -12.2347 -152.751 -58.6017 -181.663
lowerback -10.1803 -4.55142 2.35176
upperback -11.3239 -7.21466 1.24404
thorax -6.38749 -4.19224 -0.2544
lowerneck -15.2506 3.36449 -1.16497
upperneck 32.5923 3.53692 0.750605
head 13.4934 0.926525 0.920737
rclavicle 6.61378e-014 1.54555e-014
rhumerus -35.6703 -43.6073 -28.5623
rradius 12.8927
rwrist -1.03329
rhand 29.8015 10.5082
rfingers 7.12502
rthumb 53.5284 -8.64378
lclavicle 6.61378e-014 1.54555e-014
lhumerus 21.8555 -69.6684 47.6636
lradius 45.4448
lwrist 5.02392
lhand 35.8871 17.3705
lfingers 7.12502
lthumb 58.9073 32.2489
rfemur 265.767 -28.2102 -299.383
rtibia 67.9476
rfoot 144.096 -215.284
rtoes 40.696
lfemur -6.58536 0.700954 -16.5165
ltibia 43.0076
lfoot 130.532 -149.777
ltoes 14.5269
666
root -8.67339 14.3741 -12.2743 -152.51 -58.8524 -181.559
lowerback -10.0101 -4.51014 3.00327
upperback -11.757 -7.25639 1.13985
thorax -7.06484 -4.30071 -0.652572
lowerneck -13.6357 3.38101 0.0267211
upperneck 30.967 3.61349 -0.316432
head 12.5212 1.0265 0.281488
rclavicle -3.47221e-014 -6.65929e-015
rhumerus -37.4392 -45.9379 -24.3417
rradius 12.1192
rwrist 5.44649
rhand 29.7331 11.198
rfingers 7.12502
rthumb 53.4669 -7.99424
lclavicle -3.47221e-014 -6.65929e-015
lhumerus 26.3287 -69.8764 43.5876
lradius 44.9389
lwrist 1.10931
lhand 34.8387 16.158
lfingers 7.12502
lthumb 57.9965 31.8825
rfemur 265.805 -28.7631 -298.687
rtibia 67.2664
rfoot 144.88 -215.138
rtoes 40.028
lfemur -7.00859 0.260301 -16.663
ltibia 42.4592
lfoot 127.515 -151.073
ltoes 20.4228
667
root -8.73967 14.4401 -12.3218 -151.907 -58.8739 -181.74
lowerback -10.0117 -4.48645 3.10803
upperback -12.1933 -7.3002 1.12181
thorax -7.5724 -4.37075 -0.685808
lowerneck -12.8655 3.38706 0.290891
upperneck 29.9684 3.6429 -0.446696
head 11.9668 1.09591 0.180319
rclavicle -2.1975e-014 -1.98785e-016
rhumerus -39.1088 -48.0342 -20.1882
rradius 11.4981
rwrist 11.5542
rhand 29.5817 11.8917
rfingers 7.12502
rthumb 53.3305 -7.38912
lclavicle -2.1975e-014 -1.98785e-016
lhumerus 31.0012 -69.8586 39.3474
lradius 44.4741
lwrist -2.51798
lhand 33.7146 15.4561
lfingers 7.12502
lthumb 57.0119 32.0322
rfemur 265.919 -28.9338 -298.441
rtibia 66.6063
rfoot 145.447 -215.028
rtoes 39.2458
lfemur -7.61637 0.186102 -16.9506
ltibia 41.9634
lfoot 125.096 -151.623
ltoes 23.782
668
root -8.8004 14.5032 -12.3763 -151.131 -58.6929 -182.144
lowerback -10.2255 -4.5478 2.67506
upperback -12.4226 -7.39967 1.32084
thorax -7.62916 -4.39835 -0.25124
lowerneck -12.7062 3.3508 -0.0629888
upperneck 28.8995 3.80778 -0.551484
head 11.5084 1.17357 0.225342
rclavicle -1.45439e-015 -2.00773e-014
rhumerus -38.4117 -47.9197 -18.9014
rradius 11.3839
rwrist 14.4507
rhand 29.1879 11.8589
rfingers 7.12502
rthumb 52.9754 -7.64905
lclavicle -1.45439e-015 -2.00773e-014
lhumerus 34.9125 -69.0156 35.995
lradius 44.0318
lwrist -6.25593
lhand 32.9633 14.7177
lfingers 7.12502
lthumb 56.3495 31.8331
rfemur 266.284 -28.7914 -298.735
rtibia 65.976
rfoot 145.602 -215.104
rtoes 38.74
lfemur -8.1792 0.420092 -17.3649
ltibia 41.5335
lfoot 122.541 -153.943
ltoes 28.3422
669
root -8.85433 14.5656 -12.4385 -150.628 -58.4923 -182.24
lowerback -10.4923 -4.54968 2.37534
upperback -12.6185 -7.42322 1.536
thorax -7.63168 -4.39597 0.121227
lowerneck -11.5732 3.31429 0.388367
upperneck 26.9811 3.96402 -1.36685
head 10.5867 1.27717 -0.140786
rclavicle 7.37677e-015 -4.49999e-014
rhumerus -38.1843 -48.5315 -16.8956
rradius 11.148
rwrist 17.9424
rhand 29.2037 11.6382
rfingers 7.12502
rthumb 52.9896 -7.86069
lclavicle 7.37677e-015 -4.49999e-014
lhumerus 38.8521 -68.1436 32.5526
lradius 43.54
lwrist -9.68378
lhand 32.001 14.1308
lfingers 7.12502
lthumb 55.4964 31.9042
rfemur 266.924 -28.3375 -299.191
rtibia 65.3525
rfoot 145.623 -215.553
rtoes 38.3926
lfemur -8.75035 0.712572 -17.5594
ltibia 41.202
lfoot 119.95 -158.06
ltoes 34.3896
670
root -8.90787 14.6257 -12.4859 -150.269 -58.4392 -182.117
lowerback -10.6819 -4.44783 2.40155
upperback -12.8724 -7.33404 1.67047
thorax -7.79586 -4.37127 0.254642
lowerneck -11.4736 3.08312 -0.46283
upperneck 25.949 3.79374 -0.960997
head 10.1574 1.2149 0.127972
rclavicle -1.21476e-014 1.49585e-014
rhumerus -38.7963 -49.8375 -13.8879
rradius 10.8297
rwrist 22.0107
rhand 29.383 11.291
rfingers 7.12502
rthumb 53.1514 -8.10496
lclavicle -1.21476e-014 1.49585e-014
lhumerus 42.8809 -67.2492 29.2089
lradius 42.9156
lwrist -12.8083
lhand 31.049 13.6701
lfingers 7.12502
lthumb 54.6475 32.0607
rfemur 267.429 -27.969 -299.396
rtibia 64.7392
rfoot 145.71 -215.854
rtoes 37.9529
lfemur -9.42702 1.02741 -17.5582
ltibia 40.9796
lfoot 118.592 -160.349
ltoes 37.6251
671
root -8.9678 14.6826 -12.4982 -149.443 -58.3214 -182.726
lowerback -10.6564 -4.37343 2.45842
upperback -13.0715 -7.27243 1.6017
thorax -8.05238 -4.36526 0.17852
lowerneck -10.997 2.76521 -1.31242
upperneck 24.5514 3.48508 -0.531469
head 9.53746 1.10527 0.377386
rclavicle -7.38485e-014 1.58034e-014
rhumerus -38.5533 -50.208 -12.1777
rradius 10.835
rwrist 24.6141
rhand 29.5298 11.0068
rfingers 7.12502
rthumb 53.2837 -8.3042
lclavicle -7.38485e-014 1.58034e-014
lhumerus 46.3747 -66.033 26.3628
lradius 42.2267
lwrist -15.6081
lhand 30.4882 13.4093
lfingers 7.12502
lthumb 54.1453 32.1486
rfemur 267.675 -28.0381 -299.941
rtibia 64.2201
rfoot 145.591 -215.647
rtoes 38.2765
lfemur -9.99379 1.42824 -18.0411
ltibia 40.8925
lfoot 118.584 -160.282
ltoes 37.8063
